<mxfile host="app.diagrams.net" modified="2022-07-10T10:47:54.315Z" agent="5.0 (Windows NT 10.0; WOW64) AppleWebKit/537.36 (KHTML, like Gecko) Chrome/86.0.4240.198 Safari/537.36" etag="4N0yCmWYqoeKlhAnxYi0" version="20.0.4" type="github">
  <diagram id="hwmX0TKQvqyqY6SM9mjd" name="Page-1">
    <mxGraphModel dx="1835" dy="1203" grid="1" gridSize="10" guides="1" tooltips="1" connect="1" arrows="1" fold="1" page="1" pageScale="1" pageWidth="827" pageHeight="1169" math="0" shadow="0">
      <root>
        <mxCell id="0" />
        <mxCell id="1" parent="0" />
        <mxCell id="QN7hIOzqyq_gHUWrnWWQ-49" value="" style="shape=parallelogram;perimeter=parallelogramPerimeter;whiteSpace=wrap;html=1;fixedSize=1;fillColor=#e1d5e7;strokeColor=none;rotation=-160;size=99.96000000000004;" parent="1" vertex="1">
          <mxGeometry x="640.04" y="1454.81" width="298.55" height="57.52" as="geometry" />
        </mxCell>
        <mxCell id="QN7hIOzqyq_gHUWrnWWQ-50" value="" style="shape=parallelogram;perimeter=parallelogramPerimeter;whiteSpace=wrap;html=1;fixedSize=1;fillColor=#e1d5e7;strokeColor=none;rotation=-205;size=23.820000000000164;" parent="1" vertex="1">
          <mxGeometry x="654.15" y="1370.29" width="250" height="57.34" as="geometry" />
        </mxCell>
        <mxCell id="QN7hIOzqyq_gHUWrnWWQ-51" value="" style="shape=trapezoid;perimeter=trapezoidPerimeter;whiteSpace=wrap;html=1;fixedSize=1;rotation=20;size=185.08999999999992;fillColor=#f8cecc;strokeColor=none;" parent="1" vertex="1">
          <mxGeometry x="218.76" y="1228.68" width="818.83" height="65" as="geometry" />
        </mxCell>
        <mxCell id="QN7hIOzqyq_gHUWrnWWQ-52" value="" style="endArrow=classic;html=1;fontSize=35;fontFamily=Times New Roman;strokeWidth=3;fillColor=#f8cecc;strokeColor=#b85450;curved=1;entryX=1;entryY=0.5;entryDx=0;entryDy=0;" parent="1" target="QN7hIOzqyq_gHUWrnWWQ-63" edge="1">
          <mxGeometry width="50" height="50" relative="1" as="geometry">
            <mxPoint x="880" y="1320" as="sourcePoint" />
            <mxPoint x="510" y="1040" as="targetPoint" />
          </mxGeometry>
        </mxCell>
        <mxCell id="QN7hIOzqyq_gHUWrnWWQ-53" value="" style="rounded=0;whiteSpace=wrap;html=1;strokeWidth=3;fillColor=#FFFFFF;strokeColor=#B3B3B3;gradientColor=#CCCCCC;gradientDirection=north;" parent="1" vertex="1">
          <mxGeometry x="880" y="1320" width="120" height="200" as="geometry" />
        </mxCell>
        <mxCell id="QN7hIOzqyq_gHUWrnWWQ-54" value="" style="endArrow=classic;html=1;fontSize=35;fontFamily=Times New Roman;strokeWidth=3;fillColor=#dae8fc;strokeColor=#6c8ebf;curved=1;" parent="1" edge="1">
          <mxGeometry width="50" height="50" relative="1" as="geometry">
            <mxPoint x="510" y="1150" as="sourcePoint" />
            <mxPoint x="880" y="1320" as="targetPoint" />
          </mxGeometry>
        </mxCell>
        <mxCell id="QN7hIOzqyq_gHUWrnWWQ-55" value="" style="rounded=0;whiteSpace=wrap;html=1;strokeWidth=3;fillColor=#FFFFFF;strokeColor=#B3B3B3;gradientColor=#CCCCCC;gradientDirection=north;" parent="1" vertex="1">
          <mxGeometry x="600" y="1350" width="80" height="170" as="geometry" />
        </mxCell>
        <mxCell id="QN7hIOzqyq_gHUWrnWWQ-56" value="" style="endArrow=none;html=1;fontColor=#000000;fontSize=35;fontFamily=Times New Roman;strokeWidth=3;endFill=0;dashed=1;" parent="1" edge="1">
          <mxGeometry width="50" height="50" relative="1" as="geometry">
            <mxPoint x="602.5699999999999" y="1165.5" as="sourcePoint" />
            <mxPoint x="602.5699999999999" y="1165.5" as="targetPoint" />
          </mxGeometry>
        </mxCell>
        <mxCell id="QN7hIOzqyq_gHUWrnWWQ-57" value="&lt;font&gt;&lt;i&gt;B&lt;span style=&quot;font-size: 25px&quot;&gt;2&lt;/span&gt;&lt;/i&gt;&lt;span style=&quot;font-size: 35px&quot;&gt;&lt;br&gt;&lt;/span&gt;&lt;/font&gt;" style="text;html=1;strokeColor=none;fillColor=none;align=center;verticalAlign=middle;whiteSpace=wrap;rounded=0;fontColor=#000000;fontSize=35;fontFamily=Times New Roman;strokeWidth=3;" parent="1" vertex="1">
          <mxGeometry x="330" y="1100.5" width="160" height="35" as="geometry" />
        </mxCell>
        <mxCell id="QN7hIOzqyq_gHUWrnWWQ-58" value="" style="ellipse;whiteSpace=wrap;html=1;aspect=fixed;fillColor=#000000;" parent="1" vertex="1">
          <mxGeometry x="502" y="1143" width="15" height="15" as="geometry" />
        </mxCell>
        <mxCell id="QN7hIOzqyq_gHUWrnWWQ-59" value="" style="endArrow=none;html=1;fontColor=#000000;fontSize=35;fontFamily=Times New Roman;strokeWidth=2;endFill=0;exitX=0;exitY=0.5;exitDx=0;exitDy=0;fillColor=#f5f5f5;strokeColor=#666666;" parent="1" source="QN7hIOzqyq_gHUWrnWWQ-64" edge="1">
          <mxGeometry width="50" height="50" relative="1" as="geometry">
            <mxPoint x="350" y="1151.5" as="sourcePoint" />
            <mxPoint x="523.2099999999998" y="1152" as="targetPoint" />
          </mxGeometry>
        </mxCell>
        <mxCell id="QN7hIOzqyq_gHUWrnWWQ-60" value="" style="endArrow=none;html=1;strokeWidth=3;curved=1;fillColor=#f5f5f5;strokeColor=#666666;startArrow=none;" parent="1" source="QN7hIOzqyq_gHUWrnWWQ-76" edge="1">
          <mxGeometry width="50" height="50" relative="1" as="geometry">
            <mxPoint x="504" y="1520" as="sourcePoint" />
            <mxPoint x="1050" y="1520" as="targetPoint" />
          </mxGeometry>
        </mxCell>
        <mxCell id="QN7hIOzqyq_gHUWrnWWQ-61" value="" style="endArrow=classic;startArrow=classic;html=1;rounded=0;strokeWidth=3;fillColor=#e1d5e7;strokeColor=#9673a6;startFill=1;endFill=1;" parent="1" edge="1">
          <mxGeometry width="50" height="50" relative="1" as="geometry">
            <mxPoint x="880" y="1485" as="sourcePoint" />
            <mxPoint x="680" y="1410" as="targetPoint" />
          </mxGeometry>
        </mxCell>
        <mxCell id="QN7hIOzqyq_gHUWrnWWQ-62" value="" style="ellipse;whiteSpace=wrap;html=1;aspect=fixed;fillColor=#000000;" parent="1" vertex="1">
          <mxGeometry x="435" y="1143" width="15" height="15" as="geometry" />
        </mxCell>
        <mxCell id="QN7hIOzqyq_gHUWrnWWQ-63" value="" style="ellipse;whiteSpace=wrap;html=1;aspect=fixed;fillColor=#000000;" parent="1" vertex="1">
          <mxGeometry x="390" y="1144" width="15" height="15" as="geometry" />
        </mxCell>
        <mxCell id="QN7hIOzqyq_gHUWrnWWQ-64" value="" style="ellipse;whiteSpace=wrap;html=1;aspect=fixed;fillColor=#000000;" parent="1" vertex="1">
          <mxGeometry x="360" y="1144" width="15" height="15" as="geometry" />
        </mxCell>
        <mxCell id="QN7hIOzqyq_gHUWrnWWQ-65" value="&lt;i style=&quot;color: rgb(0, 0, 0); font-family: &amp;quot;times new roman&amp;quot;; font-size: 35px; font-weight: 400; letter-spacing: normal; text-align: center; text-indent: 0px; text-transform: none; word-spacing: 0px; background-color: rgb(248, 249, 250);&quot;&gt;&lt;font&gt;B&lt;span style=&quot;font-size: 25px&quot;&gt;1&lt;/span&gt;&lt;/font&gt;&lt;/i&gt;" style="text;whiteSpace=wrap;html=1;" parent="1" vertex="1">
          <mxGeometry x="320" y="1090" width="60" height="40" as="geometry" />
        </mxCell>
        <mxCell id="QN7hIOzqyq_gHUWrnWWQ-66" value="&lt;i style=&quot;color: rgb(0 , 0 , 0) ; font-family: &amp;#34;times new roman&amp;#34; ; font-weight: 400 ; letter-spacing: normal ; text-align: center ; text-indent: 0px ; text-transform: none ; word-spacing: 0px ; background-color: rgb(248 , 249 , 250)&quot;&gt;&lt;font&gt;&lt;span style=&quot;font-size: 35px&quot;&gt;B&lt;/span&gt;&lt;span style=&quot;font-size: 25px&quot;&gt;3&lt;/span&gt;&lt;/font&gt;&lt;/i&gt;" style="text;whiteSpace=wrap;html=1;" parent="1" vertex="1">
          <mxGeometry x="457" y="1090" width="60" height="40" as="geometry" />
        </mxCell>
        <mxCell id="QN7hIOzqyq_gHUWrnWWQ-67" value="&lt;i style=&quot;color: rgb(0 , 0 , 0) ; font-family: &amp;#34;times new roman&amp;#34; ; font-weight: 400 ; letter-spacing: normal ; text-align: center ; text-indent: 0px ; text-transform: none ; word-spacing: 0px ; background-color: rgb(248 , 249 , 250)&quot;&gt;&lt;font&gt;&lt;span style=&quot;font-size: 35px&quot;&gt;B&lt;/span&gt;&lt;span style=&quot;font-size: 25px&quot;&gt;4&lt;/span&gt;&lt;/font&gt;&lt;/i&gt;" style="text;whiteSpace=wrap;html=1;" parent="1" vertex="1">
          <mxGeometry x="500" y="1090" width="60" height="40" as="geometry" />
        </mxCell>
        <mxCell id="QN7hIOzqyq_gHUWrnWWQ-68" value="" style="endArrow=none;html=1;strokeWidth=3;curved=1;fillColor=#f5f5f5;strokeColor=#666666;" parent="1" edge="1">
          <mxGeometry width="50" height="50" relative="1" as="geometry">
            <mxPoint x="160" y="1520" as="sourcePoint" />
            <mxPoint x="510" y="1520" as="targetPoint" />
          </mxGeometry>
        </mxCell>
        <mxCell id="QN7hIOzqyq_gHUWrnWWQ-69" value="" style="endArrow=classic;html=1;strokeWidth=3;curved=1;fillColor=#f5f5f5;strokeColor=#666666;" parent="1" edge="1">
          <mxGeometry width="50" height="50" relative="1" as="geometry">
            <mxPoint x="236" y="1630" as="sourcePoint" />
            <mxPoint x="236" y="1080" as="targetPoint" />
          </mxGeometry>
        </mxCell>
        <mxCell id="QN7hIOzqyq_gHUWrnWWQ-70" value="&lt;div style=&quot;text-align: center&quot;&gt;&lt;span style=&quot;font-size: 35px&quot;&gt;&lt;font face=&quot;times new roman&quot;&gt;&lt;i&gt;z&lt;/i&gt;&lt;/font&gt;&lt;/span&gt;&lt;/div&gt;" style="text;whiteSpace=wrap;html=1;" parent="1" vertex="1">
          <mxGeometry x="206" y="1060" width="40" height="50" as="geometry" />
        </mxCell>
        <mxCell id="QN7hIOzqyq_gHUWrnWWQ-71" value="&lt;div style=&quot;text-align: center&quot;&gt;&lt;span style=&quot;font-size: 35px&quot;&gt;&lt;font face=&quot;times new roman&quot;&gt;&lt;i&gt;x&lt;/i&gt;&lt;/font&gt;&lt;/span&gt;&lt;/div&gt;" style="text;whiteSpace=wrap;html=1;" parent="1" vertex="1">
          <mxGeometry x="1050" y="1512.33" width="20" height="50" as="geometry" />
        </mxCell>
        <mxCell id="QN7hIOzqyq_gHUWrnWWQ-72" value="&lt;div style=&quot;text-align: center&quot;&gt;&lt;font face=&quot;times new roman&quot;&gt;&lt;span style=&quot;font-size: 35px&quot;&gt;&lt;i&gt;O&lt;/i&gt;&lt;/span&gt;&lt;/font&gt;&lt;/div&gt;" style="text;whiteSpace=wrap;html=1;" parent="1" vertex="1">
          <mxGeometry x="197" y="1515" width="20" height="50" as="geometry" />
        </mxCell>
        <mxCell id="QN7hIOzqyq_gHUWrnWWQ-73" value="" style="endArrow=classic;html=1;fontSize=35;fontFamily=Times New Roman;strokeWidth=3;fillColor=#e1d5e7;strokeColor=#9673a6;curved=1;startArrow=classic;startFill=1;" parent="1" edge="1">
          <mxGeometry width="50" height="50" relative="1" as="geometry">
            <mxPoint x="880" y="1320" as="sourcePoint" />
            <mxPoint x="680" y="1410" as="targetPoint" />
          </mxGeometry>
        </mxCell>
        <mxCell id="QN7hIOzqyq_gHUWrnWWQ-74" value="" style="ellipse;whiteSpace=wrap;html=1;aspect=fixed;fillColor=#000000;" parent="1" vertex="1">
          <mxGeometry x="880" y="1280" as="geometry" />
        </mxCell>
        <mxCell id="QN7hIOzqyq_gHUWrnWWQ-75" value="x&lt;span style=&quot;font-size: 18px; font-style: normal;&quot;&gt;N&lt;/span&gt;" style="text;html=1;strokeColor=none;fillColor=none;align=center;verticalAlign=middle;whiteSpace=wrap;rounded=0;dashed=1;fontFamily=Times New Roman;fontSize=35;fontColor=#000000;fontStyle=2;strokeWidth=3;" parent="1" vertex="1">
          <mxGeometry x="830" y="1525" width="40" height="50" as="geometry" />
        </mxCell>
        <mxCell id="QN7hIOzqyq_gHUWrnWWQ-76" value="" style="ellipse;whiteSpace=wrap;html=1;aspect=fixed;fillColor=#000000;" parent="1" vertex="1">
          <mxGeometry x="810" y="1515" width="10" height="10" as="geometry" />
        </mxCell>
        <mxCell id="QN7hIOzqyq_gHUWrnWWQ-77" value="" style="endArrow=none;html=1;strokeWidth=3;curved=1;fillColor=#f5f5f5;strokeColor=#666666;startArrow=none;" parent="1" target="QN7hIOzqyq_gHUWrnWWQ-76" edge="1">
          <mxGeometry width="50" height="50" relative="1" as="geometry">
            <mxPoint x="504.0000000000002" y="1520.000000000001" as="sourcePoint" />
            <mxPoint x="1050" y="1520.0000000000005" as="targetPoint" />
          </mxGeometry>
        </mxCell>
        <mxCell id="QN7hIOzqyq_gHUWrnWWQ-78" value="" style="ellipse;whiteSpace=wrap;html=1;aspect=fixed;fillColor=#000000;" parent="1" vertex="1">
          <mxGeometry x="875" y="1480" width="10" height="10" as="geometry" />
        </mxCell>
        <mxCell id="QN7hIOzqyq_gHUWrnWWQ-79" value="" style="endArrow=none;startArrow=classicThin;html=1;rounded=0;strokeWidth=3;fillColor=#e1d5e7;strokeColor=#9673a6;startFill=1;endFill=1;exitX=0.014;exitY=0.848;exitDx=0;exitDy=0;exitPerimeter=0;" parent="1" source="QN7hIOzqyq_gHUWrnWWQ-53" target="QN7hIOzqyq_gHUWrnWWQ-78" edge="1">
          <mxGeometry width="50" height="50" relative="1" as="geometry">
            <mxPoint x="881.6800000000003" y="1489.6" as="sourcePoint" />
            <mxPoint x="680" y="1410.0000000000005" as="targetPoint" />
          </mxGeometry>
        </mxCell>
        <mxCell id="QN7hIOzqyq_gHUWrnWWQ-80" value="z&lt;span style=&quot;font-size: 18px; font-style: normal;&quot;&gt;N&lt;/span&gt;" style="text;html=1;strokeColor=none;fillColor=none;align=center;verticalAlign=middle;whiteSpace=wrap;rounded=0;dashed=1;fontFamily=Times New Roman;fontSize=35;fontColor=#000000;fontStyle=2;strokeWidth=3;" parent="1" vertex="1">
          <mxGeometry x="893.59" y="1475" width="40" height="50" as="geometry" />
        </mxCell>
        <mxCell id="QN7hIOzqyq_gHUWrnWWQ-81" value="" style="verticalLabelPosition=bottom;shadow=0;dashed=0;align=center;html=1;verticalAlign=top;strokeWidth=1;shape=mxgraph.mockup.markup.curlyBrace;strokeColor=#999999;rotation=-180;" parent="1" vertex="1">
          <mxGeometry x="817.5" y="1520" width="62.5" height="20" as="geometry" />
        </mxCell>
        <mxCell id="QN7hIOzqyq_gHUWrnWWQ-82" value="" style="labelPosition=right;align=left;strokeWidth=1;shape=mxgraph.mockup.markup.curlyBrace;html=1;shadow=0;dashed=0;strokeColor=#999999;direction=north;rotation=-180;" parent="1" vertex="1">
          <mxGeometry x="880" y="1490" width="20" height="30" as="geometry" />
        </mxCell>
        <mxCell id="QN7hIOzqyq_gHUWrnWWQ-83" value="" style="endArrow=none;html=1;strokeWidth=3;curved=1;fillColor=#f5f5f5;strokeColor=#666666;dashed=1;" parent="1" edge="1">
          <mxGeometry width="50" height="50" relative="1" as="geometry">
            <mxPoint x="680" y="1410" as="sourcePoint" />
            <mxPoint x="880" y="1410" as="targetPoint" />
          </mxGeometry>
        </mxCell>
        <mxCell id="QN7hIOzqyq_gHUWrnWWQ-84" value="" style="endArrow=none;startArrow=classicThin;html=1;rounded=0;strokeWidth=3;fillColor=#e1d5e7;strokeColor=#9673a6;startFill=1;endFill=1;exitX=0.014;exitY=0.848;exitDx=0;exitDy=0;exitPerimeter=0;" parent="1" edge="1">
          <mxGeometry width="50" height="50" relative="1" as="geometry">
            <mxPoint x="1066.6800000000003" y="1409.5999999999995" as="sourcePoint" />
            <mxPoint x="1067.2360679775002" y="1409.4721359549999" as="targetPoint" />
          </mxGeometry>
        </mxCell>
        <mxCell id="QN7hIOzqyq_gHUWrnWWQ-85" value="h&lt;span style=&quot;font-size: 18px; font-style: normal;&quot;&gt;2&lt;/span&gt;" style="text;html=1;strokeColor=none;fillColor=none;align=center;verticalAlign=middle;whiteSpace=wrap;rounded=0;dashed=1;fontFamily=Times New Roman;fontSize=35;fontColor=#000000;fontStyle=2;strokeWidth=3;" parent="1" vertex="1">
          <mxGeometry x="1040.71" y="1390" width="39.29" height="50" as="geometry" />
        </mxCell>
        <mxCell id="QN7hIOzqyq_gHUWrnWWQ-86" value="" style="labelPosition=right;align=left;strokeWidth=1;shape=mxgraph.mockup.markup.curlyBrace;html=1;shadow=0;dashed=0;strokeColor=#999999;direction=north;rotation=-180;" parent="1" vertex="1">
          <mxGeometry x="1017.59" y="1320" width="20" height="190" as="geometry" />
        </mxCell>
        <mxCell id="QN7hIOzqyq_gHUWrnWWQ-87" value="" style="endArrow=none;startArrow=classicThin;html=1;rounded=0;strokeWidth=3;fillColor=#e1d5e7;strokeColor=#9673a6;startFill=1;endFill=1;exitX=0.014;exitY=0.848;exitDx=0;exitDy=0;exitPerimeter=0;" parent="1" edge="1">
          <mxGeometry width="50" height="50" relative="1" as="geometry">
            <mxPoint x="527.9700000000003" y="1402.2699999999995" as="sourcePoint" />
            <mxPoint x="528.5260679775001" y="1402.142135955" as="targetPoint" />
          </mxGeometry>
        </mxCell>
        <mxCell id="QN7hIOzqyq_gHUWrnWWQ-88" value="h&lt;span style=&quot;font-size: 18px; font-style: normal;&quot;&gt;1&lt;/span&gt;" style="text;html=1;strokeColor=none;fillColor=none;align=center;verticalAlign=middle;whiteSpace=wrap;rounded=0;dashed=1;fontFamily=Times New Roman;fontSize=35;fontColor=#000000;fontStyle=2;strokeWidth=3;" parent="1" vertex="1">
          <mxGeometry x="502" y="1382.67" width="41.88" height="50" as="geometry" />
        </mxCell>
        <mxCell id="QN7hIOzqyq_gHUWrnWWQ-89" value="" style="labelPosition=right;align=left;strokeWidth=1;shape=mxgraph.mockup.markup.curlyBrace;html=1;shadow=0;dashed=0;strokeColor=#999999;direction=north;rotation=0;" parent="1" vertex="1">
          <mxGeometry x="560.88" y="1352.67" width="20" height="162.33" as="geometry" />
        </mxCell>
        <mxCell id="QN7hIOzqyq_gHUWrnWWQ-90" value="" style="endArrow=none;startArrow=classicThin;html=1;rounded=0;strokeWidth=3;fillColor=#e1d5e7;strokeColor=#9673a6;startFill=1;endFill=1;exitX=0.014;exitY=0.848;exitDx=0;exitDy=0;exitPerimeter=0;" parent="1" edge="1">
          <mxGeometry width="50" height="50" relative="1" as="geometry">
            <mxPoint x="942.6800000000003" y="1409.5999999999995" as="sourcePoint" />
            <mxPoint x="943.2360679775002" y="1409.4721359549999" as="targetPoint" />
          </mxGeometry>
        </mxCell>
        <mxCell id="QN7hIOzqyq_gHUWrnWWQ-91" value="h&lt;span style=&quot;font-size: 18px; font-style: normal;&quot;&gt;ref&lt;/span&gt;" style="text;html=1;strokeColor=none;fillColor=none;align=center;verticalAlign=middle;whiteSpace=wrap;rounded=0;dashed=1;fontFamily=Times New Roman;fontSize=35;fontColor=#000000;fontStyle=2;strokeWidth=3;" parent="1" vertex="1">
          <mxGeometry x="923.1" y="1335" width="39.29" height="50" as="geometry" />
        </mxCell>
        <mxCell id="QN7hIOzqyq_gHUWrnWWQ-92" value="" style="labelPosition=right;align=left;strokeWidth=1;shape=mxgraph.mockup.markup.curlyBrace;html=1;shadow=0;dashed=0;strokeColor=#999999;direction=north;rotation=-180;" parent="1" vertex="1">
          <mxGeometry x="890.5899999999999" y="1322" width="20" height="80" as="geometry" />
        </mxCell>
        <mxCell id="QN7hIOzqyq_gHUWrnWWQ-93" value="" style="endArrow=none;html=1;strokeWidth=3;curved=1;fillColor=#f5f5f5;strokeColor=#666666;dashed=1;endFill=0;" parent="1" edge="1">
          <mxGeometry width="50" height="50" relative="1" as="geometry">
            <mxPoint x="405" y="1220" as="sourcePoint" />
            <mxPoint x="405" y="1158" as="targetPoint" />
          </mxGeometry>
        </mxCell>
        <mxCell id="QN7hIOzqyq_gHUWrnWWQ-94" value="" style="triangle;whiteSpace=wrap;html=1;strokeColor=#A50040;fillColor=#d80073;fontColor=#ffffff;" parent="1" vertex="1">
          <mxGeometry x="405" y="1155" width="35" height="15" as="geometry" />
        </mxCell>
        <mxCell id="QN7hIOzqyq_gHUWrnWWQ-95" value="&lt;div style=&quot;text-align: center&quot;&gt;&lt;span style=&quot;font-size: 35px&quot;&gt;&lt;font face=&quot;times new roman&quot;&gt;&lt;i&gt;θ&lt;/i&gt;&lt;/font&gt;&lt;/span&gt;&lt;/div&gt;" style="text;whiteSpace=wrap;html=1;" parent="1" vertex="1">
          <mxGeometry x="418" y="1158" width="40" height="50" as="geometry" />
        </mxCell>
        <mxCell id="QN7hIOzqyq_gHUWrnWWQ-142" value="L" style="text;html=1;strokeColor=none;fillColor=none;align=center;verticalAlign=middle;whiteSpace=wrap;rounded=0;dashed=1;fontFamily=Times New Roman;fontSize=35;fontColor=#000000;fontStyle=2;strokeWidth=3;" parent="1" vertex="1">
          <mxGeometry x="801.0000000000001" y="959.81" width="40" height="50" as="geometry" />
        </mxCell>
        <mxCell id="QN7hIOzqyq_gHUWrnWWQ-143" value="" style="labelPosition=right;align=left;strokeWidth=1;shape=mxgraph.mockup.markup.curlyBrace;html=1;shadow=0;dashed=0;strokeColor=#999999;direction=north;rotation=-90;" parent="1" vertex="1">
          <mxGeometry x="817.08" y="850.69" width="20" height="194.56" as="geometry" />
        </mxCell>
        <mxCell id="QN7hIOzqyq_gHUWrnWWQ-147" value="" style="shape=parallelogram;perimeter=parallelogramPerimeter;whiteSpace=wrap;html=1;fixedSize=1;fillColor=#e1d5e7;strokeColor=none;rotation=-160;size=99.96000000000004;" parent="1" vertex="1">
          <mxGeometry x="686.04" y="864.81" width="298.55" height="57.52" as="geometry" />
        </mxCell>
        <mxCell id="QN7hIOzqyq_gHUWrnWWQ-148" value="" style="shape=parallelogram;perimeter=parallelogramPerimeter;whiteSpace=wrap;html=1;fixedSize=1;fillColor=#e1d5e7;strokeColor=none;rotation=-205;size=23.820000000000164;" parent="1" vertex="1">
          <mxGeometry x="700.15" y="780.29" width="250" height="57.34" as="geometry" />
        </mxCell>
        <mxCell id="QN7hIOzqyq_gHUWrnWWQ-149" value="" style="shape=trapezoid;perimeter=trapezoidPerimeter;whiteSpace=wrap;html=1;fixedSize=1;rotation=20;size=185.08999999999992;fillColor=#f8cecc;strokeColor=none;" parent="1" vertex="1">
          <mxGeometry x="264.76" y="638.6800000000001" width="818.83" height="65" as="geometry" />
        </mxCell>
        <mxCell id="QN7hIOzqyq_gHUWrnWWQ-150" value="" style="endArrow=classic;html=1;fontSize=35;fontFamily=Times New Roman;strokeWidth=3;fillColor=#f8cecc;strokeColor=#b85450;curved=1;entryX=1;entryY=0.5;entryDx=0;entryDy=0;" parent="1" target="QN7hIOzqyq_gHUWrnWWQ-161" edge="1">
          <mxGeometry width="50" height="50" relative="1" as="geometry">
            <mxPoint x="926" y="730" as="sourcePoint" />
            <mxPoint x="556" y="450" as="targetPoint" />
          </mxGeometry>
        </mxCell>
        <mxCell id="QN7hIOzqyq_gHUWrnWWQ-151" value="" style="rounded=0;whiteSpace=wrap;html=1;strokeWidth=3;fillColor=#FFFFFF;strokeColor=#B3B3B3;gradientColor=#CCCCCC;gradientDirection=north;" parent="1" vertex="1">
          <mxGeometry x="926" y="730" width="120" height="200" as="geometry" />
        </mxCell>
        <mxCell id="QN7hIOzqyq_gHUWrnWWQ-152" value="" style="endArrow=classic;html=1;fontSize=35;fontFamily=Times New Roman;strokeWidth=3;fillColor=#dae8fc;strokeColor=#6c8ebf;curved=1;" parent="1" edge="1">
          <mxGeometry width="50" height="50" relative="1" as="geometry">
            <mxPoint x="556" y="560" as="sourcePoint" />
            <mxPoint x="926" y="730" as="targetPoint" />
          </mxGeometry>
        </mxCell>
        <mxCell id="QN7hIOzqyq_gHUWrnWWQ-153" value="" style="rounded=0;whiteSpace=wrap;html=1;strokeWidth=3;fillColor=#FFFFFF;strokeColor=#B3B3B3;gradientColor=#CCCCCC;gradientDirection=north;" parent="1" vertex="1">
          <mxGeometry x="646" y="760" width="80" height="170" as="geometry" />
        </mxCell>
        <mxCell id="QN7hIOzqyq_gHUWrnWWQ-154" value="" style="endArrow=none;html=1;fontColor=#000000;fontSize=35;fontFamily=Times New Roman;strokeWidth=3;endFill=0;dashed=1;" parent="1" edge="1">
          <mxGeometry width="50" height="50" relative="1" as="geometry">
            <mxPoint x="648.5699999999997" y="575.5" as="sourcePoint" />
            <mxPoint x="648.5699999999997" y="575.5" as="targetPoint" />
          </mxGeometry>
        </mxCell>
        <mxCell id="QN7hIOzqyq_gHUWrnWWQ-155" value="&lt;font&gt;&lt;i&gt;B&lt;span style=&quot;font-size: 25px&quot;&gt;2&lt;/span&gt;&lt;/i&gt;&lt;span style=&quot;font-size: 35px&quot;&gt;&lt;br&gt;&lt;/span&gt;&lt;/font&gt;" style="text;html=1;strokeColor=none;fillColor=none;align=center;verticalAlign=middle;whiteSpace=wrap;rounded=0;fontColor=#000000;fontSize=35;fontFamily=Times New Roman;strokeWidth=3;" parent="1" vertex="1">
          <mxGeometry x="376" y="510.5" width="160" height="35" as="geometry" />
        </mxCell>
        <mxCell id="QN7hIOzqyq_gHUWrnWWQ-156" value="" style="ellipse;whiteSpace=wrap;html=1;aspect=fixed;fillColor=#000000;" parent="1" vertex="1">
          <mxGeometry x="548" y="553" width="15" height="15" as="geometry" />
        </mxCell>
        <mxCell id="QN7hIOzqyq_gHUWrnWWQ-157" value="" style="endArrow=none;html=1;fontColor=#000000;fontSize=35;fontFamily=Times New Roman;strokeWidth=2;endFill=0;exitX=0;exitY=0.5;exitDx=0;exitDy=0;fillColor=#f5f5f5;strokeColor=#666666;" parent="1" source="QN7hIOzqyq_gHUWrnWWQ-162" edge="1">
          <mxGeometry width="50" height="50" relative="1" as="geometry">
            <mxPoint x="396" y="561.5" as="sourcePoint" />
            <mxPoint x="569.2099999999998" y="562" as="targetPoint" />
          </mxGeometry>
        </mxCell>
        <mxCell id="QN7hIOzqyq_gHUWrnWWQ-158" value="" style="endArrow=none;html=1;strokeWidth=3;curved=1;fillColor=#f5f5f5;strokeColor=#666666;startArrow=none;" parent="1" edge="1">
          <mxGeometry width="50" height="50" relative="1" as="geometry">
            <mxPoint x="851" y="930" as="sourcePoint" />
            <mxPoint x="1096" y="930" as="targetPoint" />
          </mxGeometry>
        </mxCell>
        <mxCell id="QN7hIOzqyq_gHUWrnWWQ-159" value="" style="endArrow=classic;startArrow=classic;html=1;rounded=0;strokeWidth=3;fillColor=#e1d5e7;strokeColor=#9673a6;startFill=1;endFill=1;" parent="1" edge="1">
          <mxGeometry width="50" height="50" relative="1" as="geometry">
            <mxPoint x="926" y="895" as="sourcePoint" />
            <mxPoint x="726" y="820" as="targetPoint" />
          </mxGeometry>
        </mxCell>
        <mxCell id="QN7hIOzqyq_gHUWrnWWQ-160" value="" style="ellipse;whiteSpace=wrap;html=1;aspect=fixed;fillColor=#000000;" parent="1" vertex="1">
          <mxGeometry x="481" y="553" width="15" height="15" as="geometry" />
        </mxCell>
        <mxCell id="QN7hIOzqyq_gHUWrnWWQ-161" value="" style="ellipse;whiteSpace=wrap;html=1;aspect=fixed;fillColor=#000000;" parent="1" vertex="1">
          <mxGeometry x="436" y="554" width="15" height="15" as="geometry" />
        </mxCell>
        <mxCell id="QN7hIOzqyq_gHUWrnWWQ-162" value="" style="ellipse;whiteSpace=wrap;html=1;aspect=fixed;fillColor=#000000;" parent="1" vertex="1">
          <mxGeometry x="406" y="554" width="15" height="15" as="geometry" />
        </mxCell>
        <mxCell id="QN7hIOzqyq_gHUWrnWWQ-163" value="&lt;i style=&quot;color: rgb(0, 0, 0); font-family: &amp;quot;times new roman&amp;quot;; font-size: 35px; font-weight: 400; letter-spacing: normal; text-align: center; text-indent: 0px; text-transform: none; word-spacing: 0px; background-color: rgb(248, 249, 250);&quot;&gt;&lt;font&gt;B&lt;span style=&quot;font-size: 25px&quot;&gt;1&lt;/span&gt;&lt;/font&gt;&lt;/i&gt;" style="text;whiteSpace=wrap;html=1;" parent="1" vertex="1">
          <mxGeometry x="366" y="500" width="60" height="40" as="geometry" />
        </mxCell>
        <mxCell id="QN7hIOzqyq_gHUWrnWWQ-164" value="&lt;i style=&quot;color: rgb(0 , 0 , 0) ; font-family: &amp;#34;times new roman&amp;#34; ; font-weight: 400 ; letter-spacing: normal ; text-align: center ; text-indent: 0px ; text-transform: none ; word-spacing: 0px ; background-color: rgb(248 , 249 , 250)&quot;&gt;&lt;font&gt;&lt;span style=&quot;font-size: 35px&quot;&gt;B&lt;/span&gt;&lt;span style=&quot;font-size: 25px&quot;&gt;3&lt;/span&gt;&lt;/font&gt;&lt;/i&gt;" style="text;whiteSpace=wrap;html=1;" parent="1" vertex="1">
          <mxGeometry x="503" y="500" width="60" height="40" as="geometry" />
        </mxCell>
        <mxCell id="QN7hIOzqyq_gHUWrnWWQ-165" value="&lt;i style=&quot;color: rgb(0 , 0 , 0) ; font-family: &amp;#34;times new roman&amp;#34; ; font-weight: 400 ; letter-spacing: normal ; text-align: center ; text-indent: 0px ; text-transform: none ; word-spacing: 0px ; background-color: rgb(248 , 249 , 250)&quot;&gt;&lt;font&gt;&lt;span style=&quot;font-size: 35px&quot;&gt;B&lt;/span&gt;&lt;span style=&quot;font-size: 25px&quot;&gt;4&lt;/span&gt;&lt;/font&gt;&lt;/i&gt;" style="text;whiteSpace=wrap;html=1;" parent="1" vertex="1">
          <mxGeometry x="546" y="500" width="60" height="40" as="geometry" />
        </mxCell>
        <mxCell id="QN7hIOzqyq_gHUWrnWWQ-166" value="" style="endArrow=none;html=1;strokeWidth=3;curved=1;fillColor=#f5f5f5;strokeColor=#666666;" parent="1" edge="1">
          <mxGeometry width="50" height="50" relative="1" as="geometry">
            <mxPoint x="206" y="930" as="sourcePoint" />
            <mxPoint x="556" y="930" as="targetPoint" />
          </mxGeometry>
        </mxCell>
        <mxCell id="QN7hIOzqyq_gHUWrnWWQ-167" value="" style="endArrow=classic;html=1;strokeWidth=3;curved=1;fillColor=#f5f5f5;strokeColor=#666666;" parent="1" edge="1">
          <mxGeometry width="50" height="50" relative="1" as="geometry">
            <mxPoint x="282" y="1040" as="sourcePoint" />
            <mxPoint x="282" y="490" as="targetPoint" />
          </mxGeometry>
        </mxCell>
        <mxCell id="QN7hIOzqyq_gHUWrnWWQ-168" value="&lt;div style=&quot;text-align: center&quot;&gt;&lt;span style=&quot;font-size: 35px&quot;&gt;&lt;font face=&quot;times new roman&quot;&gt;&lt;i&gt;z&lt;/i&gt;&lt;/font&gt;&lt;/span&gt;&lt;/div&gt;" style="text;whiteSpace=wrap;html=1;" parent="1" vertex="1">
          <mxGeometry x="252" y="470" width="40" height="50" as="geometry" />
        </mxCell>
        <mxCell id="QN7hIOzqyq_gHUWrnWWQ-169" value="&lt;div style=&quot;text-align: center&quot;&gt;&lt;span style=&quot;font-size: 35px&quot;&gt;&lt;font face=&quot;times new roman&quot;&gt;&lt;i&gt;x&lt;/i&gt;&lt;/font&gt;&lt;/span&gt;&lt;/div&gt;" style="text;whiteSpace=wrap;html=1;" parent="1" vertex="1">
          <mxGeometry x="1096" y="922.3299999999999" width="20" height="50" as="geometry" />
        </mxCell>
        <mxCell id="QN7hIOzqyq_gHUWrnWWQ-170" value="&lt;div style=&quot;text-align: center&quot;&gt;&lt;font face=&quot;times new roman&quot;&gt;&lt;span style=&quot;font-size: 35px&quot;&gt;&lt;i&gt;O&lt;/i&gt;&lt;/span&gt;&lt;/font&gt;&lt;/div&gt;" style="text;whiteSpace=wrap;html=1;" parent="1" vertex="1">
          <mxGeometry x="243" y="925" width="20" height="50" as="geometry" />
        </mxCell>
        <mxCell id="QN7hIOzqyq_gHUWrnWWQ-172" value="" style="ellipse;whiteSpace=wrap;html=1;aspect=fixed;fillColor=#000000;" parent="1" vertex="1">
          <mxGeometry x="926" y="690" as="geometry" />
        </mxCell>
        <mxCell id="QN7hIOzqyq_gHUWrnWWQ-175" value="" style="endArrow=none;html=1;strokeWidth=3;curved=1;fillColor=#f5f5f5;strokeColor=#666666;startArrow=none;" parent="1" edge="1">
          <mxGeometry width="50" height="50" relative="1" as="geometry">
            <mxPoint x="550.0000000000002" y="930.0000000000009" as="sourcePoint" />
            <mxPoint x="856.001664101258" y="930.1289893135154" as="targetPoint" />
          </mxGeometry>
        </mxCell>
        <mxCell id="QN7hIOzqyq_gHUWrnWWQ-181" value="" style="endArrow=none;html=1;strokeWidth=3;curved=1;fillColor=#f5f5f5;strokeColor=#666666;dashed=1;" parent="1" edge="1">
          <mxGeometry width="50" height="50" relative="1" as="geometry">
            <mxPoint x="726" y="820" as="sourcePoint" />
            <mxPoint x="926" y="820" as="targetPoint" />
          </mxGeometry>
        </mxCell>
        <mxCell id="QN7hIOzqyq_gHUWrnWWQ-182" value="" style="endArrow=none;startArrow=classicThin;html=1;rounded=0;strokeWidth=3;fillColor=#e1d5e7;strokeColor=#9673a6;startFill=1;endFill=1;exitX=0.014;exitY=0.848;exitDx=0;exitDy=0;exitPerimeter=0;" parent="1" edge="1">
          <mxGeometry width="50" height="50" relative="1" as="geometry">
            <mxPoint x="1112.6800000000003" y="819.5999999999995" as="sourcePoint" />
            <mxPoint x="1113.2360679775002" y="819.4721359549999" as="targetPoint" />
          </mxGeometry>
        </mxCell>
        <mxCell id="QN7hIOzqyq_gHUWrnWWQ-183" value="h&lt;span style=&quot;font-size: 18px; font-style: normal;&quot;&gt;2&lt;/span&gt;" style="text;html=1;strokeColor=none;fillColor=none;align=center;verticalAlign=middle;whiteSpace=wrap;rounded=0;dashed=1;fontFamily=Times New Roman;fontSize=35;fontColor=#000000;fontStyle=2;strokeWidth=3;" parent="1" vertex="1">
          <mxGeometry x="1086.71" y="800" width="39.29" height="50" as="geometry" />
        </mxCell>
        <mxCell id="QN7hIOzqyq_gHUWrnWWQ-184" value="" style="labelPosition=right;align=left;strokeWidth=1;shape=mxgraph.mockup.markup.curlyBrace;html=1;shadow=0;dashed=0;strokeColor=#999999;direction=north;rotation=-180;" parent="1" vertex="1">
          <mxGeometry x="1063.5900000000001" y="730" width="20" height="190" as="geometry" />
        </mxCell>
        <mxCell id="QN7hIOzqyq_gHUWrnWWQ-185" value="" style="endArrow=none;startArrow=classicThin;html=1;rounded=0;strokeWidth=3;fillColor=#e1d5e7;strokeColor=#9673a6;startFill=1;endFill=1;exitX=0.014;exitY=0.848;exitDx=0;exitDy=0;exitPerimeter=0;" parent="1" edge="1">
          <mxGeometry width="50" height="50" relative="1" as="geometry">
            <mxPoint x="573.9700000000003" y="812.2699999999995" as="sourcePoint" />
            <mxPoint x="574.5260679775001" y="812.142135955" as="targetPoint" />
          </mxGeometry>
        </mxCell>
        <mxCell id="QN7hIOzqyq_gHUWrnWWQ-186" value="h&lt;span style=&quot;font-size: 18px; font-style: normal;&quot;&gt;1&lt;/span&gt;" style="text;html=1;strokeColor=none;fillColor=none;align=center;verticalAlign=middle;whiteSpace=wrap;rounded=0;dashed=1;fontFamily=Times New Roman;fontSize=35;fontColor=#000000;fontStyle=2;strokeWidth=3;" parent="1" vertex="1">
          <mxGeometry x="548" y="792.6700000000001" width="41.88" height="50" as="geometry" />
        </mxCell>
        <mxCell id="QN7hIOzqyq_gHUWrnWWQ-187" value="" style="labelPosition=right;align=left;strokeWidth=1;shape=mxgraph.mockup.markup.curlyBrace;html=1;shadow=0;dashed=0;strokeColor=#999999;direction=north;rotation=0;" parent="1" vertex="1">
          <mxGeometry x="606.88" y="762.6700000000001" width="20" height="162.33" as="geometry" />
        </mxCell>
        <mxCell id="QN7hIOzqyq_gHUWrnWWQ-188" value="" style="endArrow=none;startArrow=classicThin;html=1;rounded=0;strokeWidth=3;fillColor=#e1d5e7;strokeColor=#9673a6;startFill=1;endFill=1;exitX=0.014;exitY=0.848;exitDx=0;exitDy=0;exitPerimeter=0;" parent="1" edge="1">
          <mxGeometry width="50" height="50" relative="1" as="geometry">
            <mxPoint x="988.6800000000003" y="819.5999999999995" as="sourcePoint" />
            <mxPoint x="989.2360679775002" y="819.4721359549999" as="targetPoint" />
          </mxGeometry>
        </mxCell>
        <mxCell id="QN7hIOzqyq_gHUWrnWWQ-189" value="h&lt;span style=&quot;font-size: 18px; font-style: normal;&quot;&gt;ref&lt;/span&gt;" style="text;html=1;strokeColor=none;fillColor=none;align=center;verticalAlign=middle;whiteSpace=wrap;rounded=0;dashed=1;fontFamily=Times New Roman;fontSize=35;fontColor=#000000;fontStyle=2;strokeWidth=3;" parent="1" vertex="1">
          <mxGeometry x="969.1" y="745" width="39.29" height="50" as="geometry" />
        </mxCell>
        <mxCell id="QN7hIOzqyq_gHUWrnWWQ-190" value="" style="labelPosition=right;align=left;strokeWidth=1;shape=mxgraph.mockup.markup.curlyBrace;html=1;shadow=0;dashed=0;strokeColor=#999999;direction=north;rotation=-180;" parent="1" vertex="1">
          <mxGeometry x="936.5899999999999" y="732" width="20" height="80" as="geometry" />
        </mxCell>
        <mxCell id="QN7hIOzqyq_gHUWrnWWQ-191" value="" style="endArrow=none;html=1;strokeWidth=3;curved=1;fillColor=#f5f5f5;strokeColor=#666666;dashed=1;endFill=0;" parent="1" edge="1">
          <mxGeometry width="50" height="50" relative="1" as="geometry">
            <mxPoint x="451" y="630" as="sourcePoint" />
            <mxPoint x="451" y="568" as="targetPoint" />
          </mxGeometry>
        </mxCell>
        <mxCell id="QN7hIOzqyq_gHUWrnWWQ-192" value="" style="triangle;whiteSpace=wrap;html=1;strokeColor=#A50040;fillColor=#d80073;fontColor=#ffffff;" parent="1" vertex="1">
          <mxGeometry x="451" y="565" width="35" height="15" as="geometry" />
        </mxCell>
        <mxCell id="QN7hIOzqyq_gHUWrnWWQ-193" value="&lt;div style=&quot;text-align: center&quot;&gt;&lt;span style=&quot;font-size: 35px&quot;&gt;&lt;font face=&quot;times new roman&quot;&gt;&lt;i&gt;θ&lt;/i&gt;&lt;/font&gt;&lt;/span&gt;&lt;/div&gt;" style="text;whiteSpace=wrap;html=1;" parent="1" vertex="1">
          <mxGeometry x="464" y="568" width="40" height="50" as="geometry" />
        </mxCell>
        <mxCell id="QN7hIOzqyq_gHUWrnWWQ-144" value="" style="triangle;whiteSpace=wrap;html=1;strokeColor=#A50040;fillColor=#d80073;fontColor=#ffffff;rotation=-180;" parent="1" vertex="1">
          <mxGeometry x="900.28" y="732.8299999999999" width="23.59" height="15" as="geometry" />
        </mxCell>
        <mxCell id="QN7hIOzqyq_gHUWrnWWQ-145" value="&lt;div style=&quot;text-align: center&quot;&gt;&lt;span style=&quot;font-size: 35px&quot;&gt;&lt;font face=&quot;times new roman&quot;&gt;&lt;i&gt;θ&lt;/i&gt;&lt;/font&gt;&lt;/span&gt;&lt;/div&gt;" style="text;whiteSpace=wrap;html=1;" parent="1" vertex="1">
          <mxGeometry x="895.1500000000001" y="732.8299999999999" width="40" height="50" as="geometry" />
        </mxCell>
        <mxCell id="QN7hIOzqyq_gHUWrnWWQ-171" value="" style="endArrow=classic;html=1;fontSize=35;fontFamily=Times New Roman;strokeWidth=3;fillColor=#e1d5e7;strokeColor=#9673a6;curved=1;startArrow=classic;startFill=1;" parent="1" edge="1">
          <mxGeometry width="50" height="50" relative="1" as="geometry">
            <mxPoint x="926" y="730" as="sourcePoint" />
            <mxPoint x="726" y="820" as="targetPoint" />
          </mxGeometry>
        </mxCell>
        <mxCell id="rSGjMSbUf5jfILwMxk7Q-48" value="" style="shape=parallelogram;perimeter=parallelogramPerimeter;whiteSpace=wrap;html=1;fixedSize=1;fillColor=#e1d5e7;strokeColor=none;rotation=-210;size=23.820000000000164;" vertex="1" parent="1">
          <mxGeometry x="716.6509957217423" y="2132.8599999999997" width="250" height="52.51" as="geometry" />
        </mxCell>
        <mxCell id="rSGjMSbUf5jfILwMxk7Q-49" value="" style="shape=parallelogram;perimeter=parallelogramPerimeter;whiteSpace=wrap;html=1;fixedSize=1;strokeColor=none;fillColor=#d5e8d4;rotation=15;size=145.22000000000003;" vertex="1" parent="1">
          <mxGeometry x="161.43099572174236" y="1998.3199999999997" width="975.22" height="43.01" as="geometry" />
        </mxCell>
        <mxCell id="rSGjMSbUf5jfILwMxk7Q-50" value="" style="endArrow=openThin;html=1;fontSize=35;fontFamily=Times New Roman;strokeWidth=3;fillColor=#e1d5e7;strokeColor=#9673a6;curved=1;startArrow=classic;startFill=1;endFill=0;" edge="1" parent="1">
          <mxGeometry width="50" height="50" relative="1" as="geometry">
            <mxPoint x="939.6809957217428" y="2080" as="sourcePoint" />
            <mxPoint x="748.6809957217425" y="2180" as="targetPoint" />
          </mxGeometry>
        </mxCell>
        <mxCell id="rSGjMSbUf5jfILwMxk7Q-51" value="" style="rounded=0;whiteSpace=wrap;html=1;strokeWidth=3;fillColor=#FFFFFF;strokeColor=#B3B3B3;gradientColor=#CCCCCC;gradientDirection=north;" vertex="1" parent="1">
          <mxGeometry x="939.6809957217423" y="2030" width="160" height="200" as="geometry" />
        </mxCell>
        <mxCell id="rSGjMSbUf5jfILwMxk7Q-52" value="" style="endArrow=classic;html=1;fontSize=35;fontFamily=Times New Roman;strokeWidth=3;fillColor=#dae8fc;strokeColor=#6c8ebf;curved=1;entryX=0;entryY=0.25;entryDx=0;entryDy=0;" edge="1" parent="1" target="rSGjMSbUf5jfILwMxk7Q-51">
          <mxGeometry width="50" height="50" relative="1" as="geometry">
            <mxPoint x="479.68099572174236" y="1910" as="sourcePoint" />
            <mxPoint x="809.6809957217423" y="2080" as="targetPoint" />
          </mxGeometry>
        </mxCell>
        <mxCell id="rSGjMSbUf5jfILwMxk7Q-53" value="" style="rounded=0;whiteSpace=wrap;html=1;strokeWidth=3;fillColor=#FFFFFF;strokeColor=#B3B3B3;gradientColor=#CCCCCC;gradientDirection=north;" vertex="1" parent="1">
          <mxGeometry x="669.6809957217423" y="2070" width="80" height="160" as="geometry" />
        </mxCell>
        <mxCell id="rSGjMSbUf5jfILwMxk7Q-54" value="" style="endArrow=none;html=1;fontColor=#000000;fontSize=35;fontFamily=Times New Roman;strokeWidth=3;endFill=0;dashed=1;" edge="1" parent="1">
          <mxGeometry width="50" height="50" relative="1" as="geometry">
            <mxPoint x="570.2509957217422" y="1925.5" as="sourcePoint" />
            <mxPoint x="570.2509957217422" y="1925.5" as="targetPoint" />
          </mxGeometry>
        </mxCell>
        <mxCell id="rSGjMSbUf5jfILwMxk7Q-55" value="&lt;font&gt;&lt;i&gt;B&lt;span style=&quot;font-size: 25px&quot;&gt;2&lt;/span&gt;&lt;/i&gt;&lt;span style=&quot;font-size: 35px&quot;&gt;&lt;br&gt;&lt;/span&gt;&lt;/font&gt;" style="text;html=1;strokeColor=none;fillColor=none;align=center;verticalAlign=middle;whiteSpace=wrap;rounded=0;fontColor=#000000;fontSize=35;fontFamily=Times New Roman;strokeWidth=3;" vertex="1" parent="1">
          <mxGeometry x="297.68099572174236" y="1860.5" width="160" height="35" as="geometry" />
        </mxCell>
        <mxCell id="rSGjMSbUf5jfILwMxk7Q-56" value="" style="ellipse;whiteSpace=wrap;html=1;aspect=fixed;fillColor=#000000;" vertex="1" parent="1">
          <mxGeometry x="469.68099572174236" y="1903" width="15" height="15" as="geometry" />
        </mxCell>
        <mxCell id="rSGjMSbUf5jfILwMxk7Q-57" value="" style="endArrow=none;html=1;fontColor=#000000;fontSize=35;fontFamily=Times New Roman;strokeWidth=2;endFill=0;exitX=0;exitY=0.5;exitDx=0;exitDy=0;fillColor=#f5f5f5;strokeColor=#666666;startArrow=none;" edge="1" parent="1" source="rSGjMSbUf5jfILwMxk7Q-76">
          <mxGeometry width="50" height="50" relative="1" as="geometry">
            <mxPoint x="317.68099572174236" y="1911.5" as="sourcePoint" />
            <mxPoint x="490.8909957217424" y="1912" as="targetPoint" />
          </mxGeometry>
        </mxCell>
        <mxCell id="rSGjMSbUf5jfILwMxk7Q-58" value="" style="endArrow=none;html=1;strokeWidth=3;curved=1;fillColor=#f5f5f5;strokeColor=#666666;startArrow=none;" edge="1" parent="1">
          <mxGeometry width="50" height="50" relative="1" as="geometry">
            <mxPoint x="869.6809957217423" y="2230" as="sourcePoint" />
            <mxPoint x="1109.6809957217424" y="2230" as="targetPoint" />
          </mxGeometry>
        </mxCell>
        <mxCell id="rSGjMSbUf5jfILwMxk7Q-59" value="" style="ellipse;whiteSpace=wrap;html=1;aspect=fixed;fillColor=#000000;" vertex="1" parent="1">
          <mxGeometry x="402.68099572174236" y="1903" width="15" height="15" as="geometry" />
        </mxCell>
        <mxCell id="rSGjMSbUf5jfILwMxk7Q-60" value="" style="ellipse;whiteSpace=wrap;html=1;aspect=fixed;fillColor=#000000;" vertex="1" parent="1">
          <mxGeometry x="321.68099572174236" y="1904" width="15" height="15" as="geometry" />
        </mxCell>
        <mxCell id="rSGjMSbUf5jfILwMxk7Q-61" value="&lt;i style=&quot;color: rgb(0, 0, 0); font-family: &amp;quot;times new roman&amp;quot;; font-size: 35px; font-weight: 400; letter-spacing: normal; text-align: center; text-indent: 0px; text-transform: none; word-spacing: 0px; background-color: rgb(248, 249, 250);&quot;&gt;&lt;font&gt;B&lt;span style=&quot;font-size: 25px&quot;&gt;1&lt;/span&gt;&lt;/font&gt;&lt;/i&gt;" style="text;whiteSpace=wrap;html=1;" vertex="1" parent="1">
          <mxGeometry x="294.68099572174236" y="1850" width="60" height="40" as="geometry" />
        </mxCell>
        <mxCell id="rSGjMSbUf5jfILwMxk7Q-62" value="&lt;i style=&quot;color: rgb(0 , 0 , 0) ; font-family: &amp;#34;times new roman&amp;#34; ; font-weight: 400 ; letter-spacing: normal ; text-align: center ; text-indent: 0px ; text-transform: none ; word-spacing: 0px ; background-color: rgb(248 , 249 , 250)&quot;&gt;&lt;font&gt;&lt;span style=&quot;font-size: 35px&quot;&gt;B&lt;/span&gt;&lt;span style=&quot;font-size: 25px&quot;&gt;3&lt;/span&gt;&lt;/font&gt;&lt;/i&gt;" style="text;whiteSpace=wrap;html=1;" vertex="1" parent="1">
          <mxGeometry x="424.6809957217423" y="1850" width="60" height="40" as="geometry" />
        </mxCell>
        <mxCell id="rSGjMSbUf5jfILwMxk7Q-63" value="&lt;i style=&quot;color: rgb(0 , 0 , 0) ; font-family: &amp;#34;times new roman&amp;#34; ; font-weight: 400 ; letter-spacing: normal ; text-align: center ; text-indent: 0px ; text-transform: none ; word-spacing: 0px ; background-color: rgb(248 , 249 , 250)&quot;&gt;&lt;font&gt;&lt;span style=&quot;font-size: 35px&quot;&gt;B&lt;/span&gt;&lt;span style=&quot;font-size: 25px&quot;&gt;4&lt;/span&gt;&lt;/font&gt;&lt;/i&gt;" style="text;whiteSpace=wrap;html=1;" vertex="1" parent="1">
          <mxGeometry x="467.68099572174236" y="1850" width="60" height="40" as="geometry" />
        </mxCell>
        <mxCell id="rSGjMSbUf5jfILwMxk7Q-64" value="" style="endArrow=none;html=1;strokeWidth=3;curved=1;fillColor=#f5f5f5;strokeColor=#666666;" edge="1" parent="1">
          <mxGeometry width="50" height="50" relative="1" as="geometry">
            <mxPoint x="219.68099572174236" y="2230" as="sourcePoint" />
            <mxPoint x="569.6809957217423" y="2230" as="targetPoint" />
          </mxGeometry>
        </mxCell>
        <mxCell id="rSGjMSbUf5jfILwMxk7Q-65" value="" style="endArrow=classic;html=1;strokeWidth=3;curved=1;fillColor=#f5f5f5;strokeColor=#666666;" edge="1" parent="1">
          <mxGeometry width="50" height="50" relative="1" as="geometry">
            <mxPoint x="295.68099572174236" y="2340" as="sourcePoint" />
            <mxPoint x="295.68099572174236" y="1790" as="targetPoint" />
          </mxGeometry>
        </mxCell>
        <mxCell id="rSGjMSbUf5jfILwMxk7Q-66" value="&lt;div style=&quot;text-align: center&quot;&gt;&lt;span style=&quot;font-size: 35px&quot;&gt;&lt;font face=&quot;times new roman&quot;&gt;&lt;i&gt;z&lt;/i&gt;&lt;/font&gt;&lt;/span&gt;&lt;/div&gt;" style="text;whiteSpace=wrap;html=1;" vertex="1" parent="1">
          <mxGeometry x="265.68099572174236" y="1770" width="40" height="50" as="geometry" />
        </mxCell>
        <mxCell id="rSGjMSbUf5jfILwMxk7Q-67" value="&lt;div style=&quot;text-align: center&quot;&gt;&lt;span style=&quot;font-size: 35px&quot;&gt;&lt;font face=&quot;times new roman&quot;&gt;&lt;i&gt;x&lt;/i&gt;&lt;/font&gt;&lt;/span&gt;&lt;/div&gt;" style="text;whiteSpace=wrap;html=1;" vertex="1" parent="1">
          <mxGeometry x="1124.6809957217424" y="2222.33" width="20" height="50" as="geometry" />
        </mxCell>
        <mxCell id="rSGjMSbUf5jfILwMxk7Q-68" value="&lt;div style=&quot;text-align: center&quot;&gt;&lt;font face=&quot;times new roman&quot;&gt;&lt;span style=&quot;font-size: 35px&quot;&gt;&lt;i&gt;O&lt;/i&gt;&lt;/span&gt;&lt;/font&gt;&lt;/div&gt;" style="text;whiteSpace=wrap;html=1;" vertex="1" parent="1">
          <mxGeometry x="256.68099572174236" y="2225" width="20" height="50" as="geometry" />
        </mxCell>
        <mxCell id="rSGjMSbUf5jfILwMxk7Q-69" value="" style="ellipse;whiteSpace=wrap;html=1;aspect=fixed;fillColor=#000000;" vertex="1" parent="1">
          <mxGeometry x="809.6809957217423" y="2040" as="geometry" />
        </mxCell>
        <mxCell id="rSGjMSbUf5jfILwMxk7Q-70" value="" style="endArrow=none;html=1;strokeWidth=3;curved=1;fillColor=#f5f5f5;strokeColor=#666666;startArrow=none;" edge="1" parent="1" source="rSGjMSbUf5jfILwMxk7Q-74">
          <mxGeometry width="50" height="50" relative="1" as="geometry">
            <mxPoint x="563.6809957217423" y="2230.0000000000005" as="sourcePoint" />
            <mxPoint x="869.6812407777451" y="2230.049502524198" as="targetPoint" />
          </mxGeometry>
        </mxCell>
        <mxCell id="rSGjMSbUf5jfILwMxk7Q-71" value="x&lt;span style=&quot;font-size: 18px; font-style: normal;&quot;&gt;M&lt;/span&gt;" style="text;html=1;strokeColor=none;fillColor=none;align=center;verticalAlign=middle;whiteSpace=wrap;rounded=0;dashed=1;fontFamily=Times New Roman;fontSize=35;fontColor=#000000;fontStyle=2;strokeWidth=3;" vertex="1" parent="1">
          <mxGeometry x="849.1509957217423" y="2250" width="40" height="50" as="geometry" />
        </mxCell>
        <mxCell id="rSGjMSbUf5jfILwMxk7Q-72" value="" style="labelPosition=right;align=left;strokeWidth=1;shape=mxgraph.mockup.markup.curlyBrace;html=1;shadow=0;dashed=0;strokeColor=#999999;direction=north;rotation=-89;" vertex="1" parent="1">
          <mxGeometry x="849.1509957217423" y="2170.5299999999997" width="20" height="153.59" as="geometry" />
        </mxCell>
        <mxCell id="rSGjMSbUf5jfILwMxk7Q-73" value="" style="ellipse;whiteSpace=wrap;html=1;aspect=fixed;fillColor=#000000;" vertex="1" parent="1">
          <mxGeometry x="743.6809957217423" y="2173" width="10" height="10" as="geometry" />
        </mxCell>
        <mxCell id="rSGjMSbUf5jfILwMxk7Q-74" value="" style="ellipse;whiteSpace=wrap;html=1;aspect=fixed;fillColor=#000000;" vertex="1" parent="1">
          <mxGeometry x="767.6809957217423" y="2225" width="10" height="10" as="geometry" />
        </mxCell>
        <mxCell id="rSGjMSbUf5jfILwMxk7Q-75" value="" style="endArrow=none;html=1;strokeWidth=3;curved=1;fillColor=#f5f5f5;strokeColor=#666666;startArrow=none;" edge="1" parent="1" target="rSGjMSbUf5jfILwMxk7Q-74">
          <mxGeometry width="50" height="50" relative="1" as="geometry">
            <mxPoint x="563.6809957217423" y="2230.0000000000005" as="sourcePoint" />
            <mxPoint x="869.6812407777451" y="2230.049502524198" as="targetPoint" />
          </mxGeometry>
        </mxCell>
        <mxCell id="rSGjMSbUf5jfILwMxk7Q-76" value="" style="ellipse;whiteSpace=wrap;html=1;aspect=fixed;fillColor=#000000;" vertex="1" parent="1">
          <mxGeometry x="347.68099572174236" y="1904" width="15" height="15" as="geometry" />
        </mxCell>
        <mxCell id="rSGjMSbUf5jfILwMxk7Q-77" value="" style="endArrow=none;html=1;fontColor=#000000;fontSize=35;fontFamily=Times New Roman;strokeWidth=2;endFill=0;exitX=0;exitY=0.5;exitDx=0;exitDy=0;fillColor=#f5f5f5;strokeColor=#666666;" edge="1" parent="1" source="rSGjMSbUf5jfILwMxk7Q-60" target="rSGjMSbUf5jfILwMxk7Q-76">
          <mxGeometry width="50" height="50" relative="1" as="geometry">
            <mxPoint x="327.68099572174236" y="1911.5" as="sourcePoint" />
            <mxPoint x="490.8909957217424" y="1912" as="targetPoint" />
          </mxGeometry>
        </mxCell>
        <mxCell id="rSGjMSbUf5jfILwMxk7Q-78" value="" style="endArrow=classic;html=1;fontSize=35;fontFamily=Times New Roman;strokeWidth=3;fillColor=#d5e8d4;strokeColor=#82b366;curved=1;exitX=0;exitY=0.25;exitDx=0;exitDy=0;" edge="1" parent="1">
          <mxGeometry width="50" height="50" relative="1" as="geometry">
            <mxPoint x="932.6809957217423" y="2081" as="sourcePoint" />
            <mxPoint x="348.68099572174236" y="1911" as="targetPoint" />
          </mxGeometry>
        </mxCell>
        <mxCell id="rSGjMSbUf5jfILwMxk7Q-79" value="" style="endArrow=none;html=1;strokeWidth=3;curved=1;fillColor=#f5f5f5;strokeColor=#666666;dashed=1;endFill=0;" edge="1" parent="1">
          <mxGeometry width="50" height="50" relative="1" as="geometry">
            <mxPoint x="353.18099572174236" y="1980" as="sourcePoint" />
            <mxPoint x="353.18099572174236" y="1918" as="targetPoint" />
          </mxGeometry>
        </mxCell>
        <mxCell id="rSGjMSbUf5jfILwMxk7Q-80" value="" style="triangle;whiteSpace=wrap;html=1;strokeColor=#2D7600;fillColor=#60a917;fontColor=#ffffff;" vertex="1" parent="1">
          <mxGeometry x="353.18099572174236" y="1915" width="35" height="15" as="geometry" />
        </mxCell>
        <mxCell id="rSGjMSbUf5jfILwMxk7Q-81" value="&lt;div style=&quot;text-align: center&quot;&gt;&lt;span style=&quot;font-size: 35px&quot;&gt;&lt;font face=&quot;times new roman&quot;&gt;&lt;i&gt;θ&lt;/i&gt;&lt;/font&gt;&lt;/span&gt;&lt;/div&gt;" style="text;whiteSpace=wrap;html=1;" vertex="1" parent="1">
          <mxGeometry x="366.18099572174236" y="1918" width="40" height="50" as="geometry" />
        </mxCell>
        <mxCell id="rSGjMSbUf5jfILwMxk7Q-82" value="" style="ellipse;whiteSpace=wrap;html=1;aspect=fixed;fillColor=#000000;" vertex="1" parent="1">
          <mxGeometry x="932.6809957217423" y="2123.8599999999997" width="10" height="10" as="geometry" />
        </mxCell>
        <mxCell id="rSGjMSbUf5jfILwMxk7Q-83" value="" style="endArrow=none;startArrow=classicThin;html=1;rounded=0;strokeWidth=3;fillColor=#e1d5e7;strokeColor=#9673a6;startFill=1;endFill=1;exitX=0.014;exitY=0.848;exitDx=0;exitDy=0;exitPerimeter=0;" edge="1" parent="1">
          <mxGeometry width="50" height="50" relative="1" as="geometry">
            <mxPoint x="958.8609957217428" y="2150.3599999999997" as="sourcePoint" />
            <mxPoint x="959.4170636992418" y="2150.2321359549996" as="targetPoint" />
          </mxGeometry>
        </mxCell>
        <mxCell id="rSGjMSbUf5jfILwMxk7Q-84" value="z&lt;span style=&quot;font-size: 18px; font-style: normal;&quot;&gt;M&lt;/span&gt;" style="text;html=1;strokeColor=none;fillColor=none;align=center;verticalAlign=middle;whiteSpace=wrap;rounded=0;dashed=1;fontFamily=Times New Roman;fontSize=35;fontColor=#000000;fontStyle=2;strokeWidth=3;" vertex="1" parent="1">
          <mxGeometry x="972.0009957217422" y="2150.76" width="40" height="50" as="geometry" />
        </mxCell>
        <mxCell id="rSGjMSbUf5jfILwMxk7Q-85" value="" style="labelPosition=right;align=left;strokeWidth=1;shape=mxgraph.mockup.markup.curlyBrace;html=1;shadow=0;dashed=0;strokeColor=#999999;direction=north;rotation=-180;" vertex="1" parent="1">
          <mxGeometry x="945.1809957217423" y="2134.2799999999997" width="20" height="89.24" as="geometry" />
        </mxCell>
        <mxCell id="rSGjMSbUf5jfILwMxk7Q-86" value="h&lt;span style=&quot;font-size: 18px; font-style: normal;&quot;&gt;2&lt;/span&gt;" style="text;html=1;strokeColor=none;fillColor=none;align=center;verticalAlign=middle;whiteSpace=wrap;rounded=0;dashed=1;fontFamily=Times New Roman;fontSize=35;fontColor=#000000;fontStyle=2;strokeWidth=3;" vertex="1" parent="1">
          <mxGeometry x="1128.3909957217425" y="2105" width="39.29" height="50" as="geometry" />
        </mxCell>
        <mxCell id="rSGjMSbUf5jfILwMxk7Q-87" value="" style="labelPosition=right;align=left;strokeWidth=1;shape=mxgraph.mockup.markup.curlyBrace;html=1;shadow=0;dashed=0;strokeColor=#999999;direction=north;rotation=-180;" vertex="1" parent="1">
          <mxGeometry x="1105.2709957217423" y="2030" width="20" height="195" as="geometry" />
        </mxCell>
        <mxCell id="rSGjMSbUf5jfILwMxk7Q-88" value="" style="endArrow=none;startArrow=classicThin;html=1;rounded=0;strokeWidth=3;fillColor=#e1d5e7;strokeColor=#9673a6;startFill=1;endFill=1;exitX=0.014;exitY=0.848;exitDx=0;exitDy=0;exitPerimeter=0;" edge="1" parent="1">
          <mxGeometry width="50" height="50" relative="1" as="geometry">
            <mxPoint x="600.6509957217426" y="2117.2699999999995" as="sourcePoint" />
            <mxPoint x="601.2070636992424" y="2117.142135955" as="targetPoint" />
          </mxGeometry>
        </mxCell>
        <mxCell id="rSGjMSbUf5jfILwMxk7Q-89" value="h&lt;span style=&quot;font-size: 18px; font-style: normal;&quot;&gt;1&lt;/span&gt;" style="text;html=1;strokeColor=none;fillColor=none;align=center;verticalAlign=middle;whiteSpace=wrap;rounded=0;dashed=1;fontFamily=Times New Roman;fontSize=35;fontColor=#000000;fontStyle=2;strokeWidth=3;" vertex="1" parent="1">
          <mxGeometry x="574.6809957217423" y="2097.67" width="41.88" height="50" as="geometry" />
        </mxCell>
        <mxCell id="rSGjMSbUf5jfILwMxk7Q-90" value="" style="labelPosition=right;align=left;strokeWidth=1;shape=mxgraph.mockup.markup.curlyBrace;html=1;shadow=0;dashed=0;strokeColor=#999999;direction=north;rotation=0;" vertex="1" parent="1">
          <mxGeometry x="633.5609957217423" y="2067.67" width="20" height="162.33" as="geometry" />
        </mxCell>
        <mxCell id="rSGjMSbUf5jfILwMxk7Q-107" value="" style="triangle;whiteSpace=wrap;html=1;strokeColor=#82b366;fillColor=#d5e8d4;" vertex="1" parent="1">
          <mxGeometry x="257" y="2667" width="21.62" height="25" as="geometry" />
        </mxCell>
        <mxCell id="rSGjMSbUf5jfILwMxk7Q-108" value="" style="rounded=0;whiteSpace=wrap;html=1;strokeWidth=3;fillColor=#FFFFFF;strokeColor=#B3B3B3;gradientColor=#CCCCCC;gradientDirection=north;" vertex="1" parent="1">
          <mxGeometry x="1008.62" y="2860" width="80" height="130" as="geometry" />
        </mxCell>
        <mxCell id="rSGjMSbUf5jfILwMxk7Q-109" value="" style="rounded=0;whiteSpace=wrap;html=1;strokeWidth=3;fillColor=#FFFFFF;strokeColor=#B3B3B3;gradientColor=#CCCCCC;gradientDirection=north;" vertex="1" parent="1">
          <mxGeometry x="738.62" y="2830" width="80" height="160" as="geometry" />
        </mxCell>
        <mxCell id="rSGjMSbUf5jfILwMxk7Q-110" value="" style="endArrow=none;html=1;fontColor=#7EA6E0;fontSize=35;fontFamily=Times New Roman;strokeWidth=3;endFill=0;dashed=1;fillColor=#dae8fc;strokeColor=#6c8ebf;" edge="1" parent="1">
          <mxGeometry width="50" height="50" relative="1" as="geometry">
            <mxPoint x="363.26999999999964" y="2685.5" as="sourcePoint" />
            <mxPoint x="363.26999999999964" y="2685.5" as="targetPoint" />
          </mxGeometry>
        </mxCell>
        <mxCell id="rSGjMSbUf5jfILwMxk7Q-111" value="&lt;font&gt;&lt;i&gt;B&lt;span style=&quot;font-size: 25px&quot;&gt;2&lt;/span&gt;&lt;/i&gt;&lt;span style=&quot;font-size: 35px&quot;&gt;&lt;br&gt;&lt;/span&gt;&lt;/font&gt;" style="text;html=1;strokeColor=none;fillColor=none;align=center;verticalAlign=middle;whiteSpace=wrap;rounded=0;fontColor=#000000;fontSize=35;fontFamily=Times New Roman;strokeWidth=3;" vertex="1" parent="1">
          <mxGeometry x="200" y="2620.5" width="160" height="35" as="geometry" />
        </mxCell>
        <mxCell id="rSGjMSbUf5jfILwMxk7Q-112" value="" style="ellipse;whiteSpace=wrap;html=1;aspect=fixed;fillColor=#000000;" vertex="1" parent="1">
          <mxGeometry x="371.99999999999994" y="2663" width="15" height="15" as="geometry" />
        </mxCell>
        <mxCell id="rSGjMSbUf5jfILwMxk7Q-113" value="" style="endArrow=none;html=1;fontColor=#000000;fontSize=35;fontFamily=Times New Roman;strokeWidth=2;endFill=0;exitX=0;exitY=0.5;exitDx=0;exitDy=0;fillColor=#f5f5f5;strokeColor=#666666;startArrow=none;" edge="1" parent="1" source="rSGjMSbUf5jfILwMxk7Q-125">
          <mxGeometry width="50" height="50" relative="1" as="geometry">
            <mxPoint x="220" y="2671.5" as="sourcePoint" />
            <mxPoint x="393.21000000000015" y="2672" as="targetPoint" />
          </mxGeometry>
        </mxCell>
        <mxCell id="rSGjMSbUf5jfILwMxk7Q-114" value="" style="endArrow=none;html=1;strokeWidth=3;curved=1;fillColor=#f5f5f5;strokeColor=#666666;startArrow=none;" edge="1" parent="1" source="rSGjMSbUf5jfILwMxk7Q-150">
          <mxGeometry width="50" height="50" relative="1" as="geometry">
            <mxPoint x="828.62" y="2990" as="sourcePoint" />
            <mxPoint x="1178.62" y="2990" as="targetPoint" />
          </mxGeometry>
        </mxCell>
        <mxCell id="rSGjMSbUf5jfILwMxk7Q-115" value="" style="ellipse;whiteSpace=wrap;html=1;aspect=fixed;fillColor=#000000;" vertex="1" parent="1">
          <mxGeometry x="305" y="2663" width="15" height="15" as="geometry" />
        </mxCell>
        <mxCell id="rSGjMSbUf5jfILwMxk7Q-116" value="" style="ellipse;whiteSpace=wrap;html=1;aspect=fixed;fillColor=#000000;" vertex="1" parent="1">
          <mxGeometry x="224" y="2664" width="15" height="15" as="geometry" />
        </mxCell>
        <mxCell id="rSGjMSbUf5jfILwMxk7Q-117" value="&lt;i style=&quot;color: rgb(0, 0, 0); font-family: &amp;quot;times new roman&amp;quot;; font-size: 35px; font-weight: 400; letter-spacing: normal; text-align: center; text-indent: 0px; text-transform: none; word-spacing: 0px; background-color: rgb(248, 249, 250);&quot;&gt;&lt;font&gt;B&lt;span style=&quot;font-size: 25px&quot;&gt;1&lt;/span&gt;&lt;/font&gt;&lt;/i&gt;" style="text;whiteSpace=wrap;html=1;" vertex="1" parent="1">
          <mxGeometry x="197" y="2610" width="60" height="40" as="geometry" />
        </mxCell>
        <mxCell id="rSGjMSbUf5jfILwMxk7Q-118" value="&lt;i style=&quot;color: rgb(0 , 0 , 0) ; font-family: &amp;#34;times new roman&amp;#34; ; font-weight: 400 ; letter-spacing: normal ; text-align: center ; text-indent: 0px ; text-transform: none ; word-spacing: 0px ; background-color: rgb(248 , 249 , 250)&quot;&gt;&lt;font&gt;&lt;span style=&quot;font-size: 35px&quot;&gt;B&lt;/span&gt;&lt;span style=&quot;font-size: 25px&quot;&gt;3&lt;/span&gt;&lt;/font&gt;&lt;/i&gt;" style="text;whiteSpace=wrap;html=1;" vertex="1" parent="1">
          <mxGeometry x="326.99999999999994" y="2610" width="60" height="40" as="geometry" />
        </mxCell>
        <mxCell id="rSGjMSbUf5jfILwMxk7Q-119" value="&lt;i style=&quot;color: rgb(0 , 0 , 0) ; font-family: &amp;#34;times new roman&amp;#34; ; font-weight: 400 ; letter-spacing: normal ; text-align: center ; text-indent: 0px ; text-transform: none ; word-spacing: 0px ; background-color: rgb(248 , 249 , 250)&quot;&gt;&lt;font&gt;&lt;span style=&quot;font-size: 35px&quot;&gt;B&lt;/span&gt;&lt;span style=&quot;font-size: 25px&quot;&gt;4&lt;/span&gt;&lt;/font&gt;&lt;/i&gt;" style="text;whiteSpace=wrap;html=1;" vertex="1" parent="1">
          <mxGeometry x="370" y="2610" width="60" height="40" as="geometry" />
        </mxCell>
        <mxCell id="rSGjMSbUf5jfILwMxk7Q-120" value="" style="endArrow=none;html=1;strokeWidth=3;curved=1;fillColor=#f5f5f5;strokeColor=#666666;" edge="1" parent="1">
          <mxGeometry width="50" height="50" relative="1" as="geometry">
            <mxPoint x="228.62" y="2990" as="sourcePoint" />
            <mxPoint x="638.62" y="2990" as="targetPoint" />
          </mxGeometry>
        </mxCell>
        <mxCell id="rSGjMSbUf5jfILwMxk7Q-123" value="" style="ellipse;whiteSpace=wrap;html=1;aspect=fixed;fillColor=#000000;" vertex="1" parent="1">
          <mxGeometry x="878.62" y="2800" as="geometry" />
        </mxCell>
        <mxCell id="rSGjMSbUf5jfILwMxk7Q-124" value="" style="endArrow=none;html=1;strokeWidth=3;curved=1;fillColor=#f5f5f5;strokeColor=#666666;startArrow=none;" edge="1" parent="1">
          <mxGeometry width="50" height="50" relative="1" as="geometry">
            <mxPoint x="632.62" y="2990" as="sourcePoint" />
            <mxPoint x="836.6218754689809" y="2990.136934918658" as="targetPoint" />
          </mxGeometry>
        </mxCell>
        <mxCell id="rSGjMSbUf5jfILwMxk7Q-125" value="" style="ellipse;whiteSpace=wrap;html=1;aspect=fixed;fillColor=#000000;" vertex="1" parent="1">
          <mxGeometry x="250" y="2664" width="15" height="15" as="geometry" />
        </mxCell>
        <mxCell id="rSGjMSbUf5jfILwMxk7Q-126" value="" style="endArrow=none;html=1;fontColor=#000000;fontSize=35;fontFamily=Times New Roman;strokeWidth=2;endFill=0;exitX=0;exitY=0.5;exitDx=0;exitDy=0;fillColor=#f5f5f5;strokeColor=#666666;" edge="1" parent="1" source="rSGjMSbUf5jfILwMxk7Q-116" target="rSGjMSbUf5jfILwMxk7Q-125">
          <mxGeometry width="50" height="50" relative="1" as="geometry">
            <mxPoint x="230" y="2671.5" as="sourcePoint" />
            <mxPoint x="393.21000000000004" y="2672" as="targetPoint" />
          </mxGeometry>
        </mxCell>
        <mxCell id="rSGjMSbUf5jfILwMxk7Q-127" value="" style="endArrow=classic;html=1;fontSize=35;fontFamily=Times New Roman;strokeWidth=3;fillColor=#d5e8d4;strokeColor=#82b366;curved=1;entryX=0.899;entryY=0.634;entryDx=0;entryDy=0;entryPerimeter=0;" edge="1" parent="1" target="rSGjMSbUf5jfILwMxk7Q-125">
          <mxGeometry width="50" height="50" relative="1" as="geometry">
            <mxPoint x="998.62" y="2880" as="sourcePoint" />
            <mxPoint x="268.62" y="2670" as="targetPoint" />
          </mxGeometry>
        </mxCell>
        <mxCell id="rSGjMSbUf5jfILwMxk7Q-128" value="" style="endArrow=none;html=1;strokeWidth=3;curved=1;fillColor=#f5f5f5;strokeColor=#666666;dashed=1;endFill=0;" edge="1" parent="1">
          <mxGeometry width="50" height="50" relative="1" as="geometry">
            <mxPoint x="255.5000000000001" y="2740" as="sourcePoint" />
            <mxPoint x="255.5000000000001" y="2678" as="targetPoint" />
          </mxGeometry>
        </mxCell>
        <mxCell id="rSGjMSbUf5jfILwMxk7Q-129" value="&lt;div style=&quot;text-align: center&quot;&gt;&lt;span style=&quot;font-size: 35px&quot;&gt;&lt;font face=&quot;times new roman&quot;&gt;&lt;i&gt;θ&lt;/i&gt;&lt;/font&gt;&lt;/span&gt;&lt;/div&gt;" style="text;whiteSpace=wrap;html=1;" vertex="1" parent="1">
          <mxGeometry x="268.5" y="2678" width="40" height="50" as="geometry" />
        </mxCell>
        <mxCell id="rSGjMSbUf5jfILwMxk7Q-130" value="" style="endArrow=none;startArrow=classicThin;html=1;rounded=0;strokeWidth=3;fillColor=#e1d5e7;strokeColor=#9673a6;startFill=1;endFill=1;exitX=0.014;exitY=0.848;exitDx=0;exitDy=0;exitPerimeter=0;" edge="1" parent="1">
          <mxGeometry width="50" height="50" relative="1" as="geometry">
            <mxPoint x="1027.8000000000002" y="2910.3599999999997" as="sourcePoint" />
            <mxPoint x="1028.3560679774992" y="2910.2321359549996" as="targetPoint" />
          </mxGeometry>
        </mxCell>
        <mxCell id="rSGjMSbUf5jfILwMxk7Q-131" value="h&lt;span style=&quot;font-size: 18px; font-style: normal;&quot;&gt;2&lt;/span&gt;" style="text;html=1;strokeColor=none;fillColor=none;align=center;verticalAlign=middle;whiteSpace=wrap;rounded=0;dashed=1;fontFamily=Times New Roman;fontSize=35;fontColor=#000000;fontStyle=2;strokeWidth=3;" vertex="1" parent="1">
          <mxGeometry x="1119.41" y="2897.33" width="39.29" height="50" as="geometry" />
        </mxCell>
        <mxCell id="rSGjMSbUf5jfILwMxk7Q-132" value="" style="labelPosition=right;align=left;strokeWidth=1;shape=mxgraph.mockup.markup.curlyBrace;html=1;shadow=0;dashed=0;strokeColor=#999999;direction=north;rotation=-180;" vertex="1" parent="1">
          <mxGeometry x="1102.21" y="2862.33" width="20" height="120" as="geometry" />
        </mxCell>
        <mxCell id="rSGjMSbUf5jfILwMxk7Q-133" value="" style="endArrow=none;startArrow=classicThin;html=1;rounded=0;strokeWidth=3;fillColor=#e1d5e7;strokeColor=#9673a6;startFill=1;endFill=1;exitX=0.014;exitY=0.848;exitDx=0;exitDy=0;exitPerimeter=0;" edge="1" parent="1">
          <mxGeometry width="50" height="50" relative="1" as="geometry">
            <mxPoint x="669.5900000000003" y="2877.2699999999995" as="sourcePoint" />
            <mxPoint x="670.1460679775001" y="2877.1421359550004" as="targetPoint" />
          </mxGeometry>
        </mxCell>
        <mxCell id="rSGjMSbUf5jfILwMxk7Q-134" value="h&lt;span style=&quot;font-size: 18px; font-style: normal;&quot;&gt;1&lt;/span&gt;" style="text;html=1;strokeColor=none;fillColor=none;align=center;verticalAlign=middle;whiteSpace=wrap;rounded=0;dashed=1;fontFamily=Times New Roman;fontSize=35;fontColor=#000000;fontStyle=2;strokeWidth=3;" vertex="1" parent="1">
          <mxGeometry x="643.62" y="2857.67" width="41.88" height="50" as="geometry" />
        </mxCell>
        <mxCell id="rSGjMSbUf5jfILwMxk7Q-135" value="" style="labelPosition=right;align=left;strokeWidth=1;shape=mxgraph.mockup.markup.curlyBrace;html=1;shadow=0;dashed=0;strokeColor=#999999;direction=north;rotation=0;" vertex="1" parent="1">
          <mxGeometry x="702.5" y="2827.67" width="20" height="162.33" as="geometry" />
        </mxCell>
        <mxCell id="rSGjMSbUf5jfILwMxk7Q-136" value="" style="endArrow=classic;html=1;fontSize=35;fontFamily=Times New Roman;strokeWidth=3;fillColor=#d5e8d4;strokeColor=#82b366;curved=1;exitX=-0.011;exitY=0.435;exitDx=0;exitDy=0;exitPerimeter=0;startArrow=classic;startFill=1;" edge="1" parent="1">
          <mxGeometry width="50" height="50" relative="1" as="geometry">
            <mxPoint x="1011.8599999999998" y="2880" as="sourcePoint" />
            <mxPoint x="818.62" y="2950" as="targetPoint" />
          </mxGeometry>
        </mxCell>
        <mxCell id="rSGjMSbUf5jfILwMxk7Q-137" value="" style="endArrow=classic;html=1;fontSize=35;fontFamily=Times New Roman;strokeWidth=3;fillColor=#f8cecc;strokeColor=#b85450;curved=1;exitX=0;exitY=0;exitDx=0;exitDy=0;" edge="1" parent="1" source="rSGjMSbUf5jfILwMxk7Q-108" target="rSGjMSbUf5jfILwMxk7Q-143">
          <mxGeometry width="50" height="50" relative="1" as="geometry">
            <mxPoint x="1059.2399999999998" y="2865" as="sourcePoint" />
            <mxPoint x="538.62" y="2667" as="targetPoint" />
          </mxGeometry>
        </mxCell>
        <mxCell id="rSGjMSbUf5jfILwMxk7Q-139" value="" style="ellipse;whiteSpace=wrap;html=1;aspect=fixed;fillColor=#dae8fc;strokeColor=#6c8ebf;" vertex="1" parent="1">
          <mxGeometry x="471.32000000000005" y="2660" width="18" height="18" as="geometry" />
        </mxCell>
        <mxCell id="rSGjMSbUf5jfILwMxk7Q-140" value="" style="endArrow=none;html=1;fontColor=#7EA6E0;fontSize=35;fontFamily=Times New Roman;strokeWidth=2;endFill=0;exitX=0;exitY=0.5;exitDx=0;exitDy=0;fillColor=#dae8fc;strokeColor=#6c8ebf;startArrow=none;" edge="1" parent="1" source="rSGjMSbUf5jfILwMxk7Q-143">
          <mxGeometry width="50" height="50" relative="1" as="geometry">
            <mxPoint x="319.32" y="2671.5" as="sourcePoint" />
            <mxPoint x="492.52999999999986" y="2672" as="targetPoint" />
          </mxGeometry>
        </mxCell>
        <mxCell id="rSGjMSbUf5jfILwMxk7Q-141" value="" style="ellipse;whiteSpace=wrap;html=1;aspect=fixed;fillColor=#dae8fc;strokeColor=#6c8ebf;" vertex="1" parent="1">
          <mxGeometry x="404.32000000000005" y="2663" width="15" height="15" as="geometry" />
        </mxCell>
        <mxCell id="rSGjMSbUf5jfILwMxk7Q-142" value="" style="ellipse;whiteSpace=wrap;html=1;aspect=fixed;fillColor=#dae8fc;strokeColor=#6c8ebf;" vertex="1" parent="1">
          <mxGeometry x="323.32" y="2664" width="15" height="15" as="geometry" />
        </mxCell>
        <mxCell id="rSGjMSbUf5jfILwMxk7Q-143" value="" style="ellipse;whiteSpace=wrap;html=1;aspect=fixed;fillColor=#dae8fc;strokeColor=#6c8ebf;" vertex="1" parent="1">
          <mxGeometry x="349.32" y="2664" width="15" height="15" as="geometry" />
        </mxCell>
        <mxCell id="rSGjMSbUf5jfILwMxk7Q-144" value="" style="endArrow=none;html=1;fontColor=#7EA6E0;fontSize=35;fontFamily=Times New Roman;strokeWidth=2;endFill=0;exitX=0;exitY=0.5;exitDx=0;exitDy=0;fillColor=#dae8fc;strokeColor=#6c8ebf;" edge="1" parent="1" source="rSGjMSbUf5jfILwMxk7Q-142" target="rSGjMSbUf5jfILwMxk7Q-143">
          <mxGeometry width="50" height="50" relative="1" as="geometry">
            <mxPoint x="329.32" y="2671.5" as="sourcePoint" />
            <mxPoint x="492.5300000000001" y="2672" as="targetPoint" />
          </mxGeometry>
        </mxCell>
        <mxCell id="rSGjMSbUf5jfILwMxk7Q-145" value="" style="endArrow=classic;html=1;fontSize=35;fontFamily=Times New Roman;strokeWidth=3;fillColor=#f8cecc;strokeColor=#b85450;curved=1;exitX=-0.011;exitY=0.435;exitDx=0;exitDy=0;exitPerimeter=0;startArrow=classic;startFill=1;" edge="1" parent="1">
          <mxGeometry width="50" height="50" relative="1" as="geometry">
            <mxPoint x="1011.0599999999996" y="2861.33" as="sourcePoint" />
            <mxPoint x="817.8199999999998" y="2931.33" as="targetPoint" />
          </mxGeometry>
        </mxCell>
        <mxCell id="rSGjMSbUf5jfILwMxk7Q-148" value="x&lt;span style=&quot;font-size: 18px; font-style: normal;&quot;&gt;M&lt;/span&gt;&lt;span style=&quot;font-style: normal;&quot;&gt;&lt;font style=&quot;font-size: 25px;&quot;&gt;-&lt;/font&gt;&lt;/span&gt;x&lt;span style=&quot;font-size: 18px; font-style: normal;&quot;&gt;N&lt;/span&gt;" style="text;html=1;strokeColor=none;fillColor=none;align=center;verticalAlign=middle;whiteSpace=wrap;rounded=0;dashed=1;fontFamily=Times New Roman;fontSize=35;fontColor=#000000;fontStyle=2;strokeWidth=3;" vertex="1" parent="1">
          <mxGeometry x="923" y="2998" width="60" height="50" as="geometry" />
        </mxCell>
        <mxCell id="rSGjMSbUf5jfILwMxk7Q-149" value="" style="labelPosition=right;align=left;strokeWidth=1;shape=mxgraph.mockup.markup.curlyBrace;html=1;shadow=0;dashed=0;strokeColor=#999999;direction=north;rotation=-89;" vertex="1" parent="1">
          <mxGeometry x="942.39" y="2978.8500000000004" width="20" height="56.15" as="geometry" />
        </mxCell>
        <mxCell id="rSGjMSbUf5jfILwMxk7Q-151" value="" style="ellipse;whiteSpace=wrap;html=1;aspect=fixed;fillColor=#000000;" vertex="1" parent="1">
          <mxGeometry x="974.5909957217423" y="2985.0000000000005" width="10" height="10" as="geometry" />
        </mxCell>
        <mxCell id="rSGjMSbUf5jfILwMxk7Q-150" value="" style="ellipse;whiteSpace=wrap;html=1;aspect=fixed;fillColor=#000000;" vertex="1" parent="1">
          <mxGeometry x="921.0009957217424" y="2985.0000000000005" width="10" height="10" as="geometry" />
        </mxCell>
        <mxCell id="rSGjMSbUf5jfILwMxk7Q-153" value="" style="endArrow=none;html=1;strokeWidth=3;curved=1;fillColor=#f5f5f5;strokeColor=#666666;startArrow=none;" edge="1" parent="1" target="rSGjMSbUf5jfILwMxk7Q-150">
          <mxGeometry width="50" height="50" relative="1" as="geometry">
            <mxPoint x="828.6199999999999" y="2990" as="sourcePoint" />
            <mxPoint x="1178.62" y="2990" as="targetPoint" />
          </mxGeometry>
        </mxCell>
        <mxCell id="rSGjMSbUf5jfILwMxk7Q-138" value="" style="endArrow=classic;html=1;fontSize=35;fontFamily=Times New Roman;strokeWidth=3;fillColor=#d5e8d4;strokeColor=#82b366;curved=1;entryX=1;entryY=0.75;entryDx=0;entryDy=0;startArrow=classic;startFill=1;" edge="1" parent="1" target="rSGjMSbUf5jfILwMxk7Q-109">
          <mxGeometry width="50" height="50" relative="1" as="geometry">
            <mxPoint x="928.62" y="2990" as="sourcePoint" />
            <mxPoint x="827.14" y="2939.72" as="targetPoint" />
          </mxGeometry>
        </mxCell>
        <mxCell id="rSGjMSbUf5jfILwMxk7Q-146" value="" style="endArrow=classic;html=1;fontSize=35;fontFamily=Times New Roman;strokeWidth=3;fillColor=#f8cecc;strokeColor=#b85450;curved=1;startArrow=classic;startFill=1;" edge="1" parent="1">
          <mxGeometry width="50" height="50" relative="1" as="geometry">
            <mxPoint x="978.62" y="2990" as="sourcePoint" />
            <mxPoint x="818.62" y="2930" as="targetPoint" />
          </mxGeometry>
        </mxCell>
      </root>
    </mxGraphModel>
  </diagram>
</mxfile>
